<svg xmlns="http://www.w3.org/2000/svg" style="--b:transparent;--t:#fbfbfb;--c:#111" viewBox="0 0 1638 1300"><defs><radialGradient id="a" cx="822" cy="654" r="593" fx="722" fy="545" gradientUnits="userSpaceOnUse"><stop offset="0%" stop-color="#CACEA6"/><stop offset="100%" stop-color="#95B9A5"/></radialGradient></defs><path fill="var(--b)" d="M0 0h1638v1300H0V0z"/><path fill="url(#a)" d="M1418.8 752.5A605 605 0 1 1 1366 371a605 605 0 0 1 52.8 381.5z"/><path fill="var(--c)" d="M710.7 427.8c2-8.7-1.2-25.3 4.3-29.5 4.2-.7 2.7-1 6.4.6 4.2 5.3 2.5 20.6 2.4 28.4 20.7 7.2 37.8 18.9 40.5 42.1A252.7 252.7 0 0 1 741 473c-17.2 1.7-28.4-1.7-26.7 19.5 5.4 1.4 10.3 2.5 15.8 3.6 8.5 3.8 19 7 26.6 10.6 3.1 7.5 8.5 6.6 16.3 8 .2 11.3 2.3 16.4-8.4 22.4l-1.3.7-.8.4a3004.1 3004.1 0 0 0 13 119.4c1.8 15.2 4 39.5 6.7 54 .3 10.3 3.4 29.9 4.7 41 163-2 319.8 21.6 470.3 86.8a736 736 0 0 1 95.5 49.1c-47.7 106.3-133.5 195-233.5 253.5-2-33.1-22.6-64.8-47.1-86.1-49-42.7-113.3-62-174.5-78.8 36.7-42.1 33.5-72.9-21.5-98.1-33.8-15.5-76.3-26.9-112.4-37.4 17.4-10 47.2-24.7 52.9-45.1l.8-3.5c-1.5-6.2-2.3-10.2-7.3-14.7-12-10.8-31-14.9-46.3-17.6l.7 3.6c67.7 22.2 16 53-17.3 72.6-28.7-10.9-95.5-30.8-55.8-70.6a283.5 283.5 0 0 0-5.9 2c-13.6 5.2-29.4 17.3-21.6 33.5 10.8 22 44.3 34.4 66 42.6-18.3 10-56.6 29.2-64 48.7-12.8 33.2 39.4 51.3 62.7 59.6 19 6.8 40.4 12.3 60.4 17.8a1546.7 1546.7 0 0 1 57.3 16.6c-62.7 48.8-149 94.9-181.8 172.3-5.2 12.2-7.2 24-9.5 37-15.2-5.2-31.1-10.4-46-16.2a582.6 582.6 0 0 1-322.7-310.8 609.2 609.2 0 0 1 61.3-29.9 1069.6 1069.6 0 0 1 301.3-79.3c1.2-16.3 4.6-34.5 5.1-50.4 2-8.1 4.8-38.7 6.1-48.4 5.4-40.7 8.9-82.1 14.3-122.8-13.4-6.4-11.9-9-10.7-23.4 4.3-1.6 9.9-3.1 14.4-4.5 0-5.7.6-36.9-.6-40-2-.5-2.4-.6-4.3-1.6-1.5-21.7 20.4-34.4 37.5-41.3z"/><path fill="#8BADAA" d="M746.1 758.6a630.5 630.5 0 0 1 17.7 2.1l.7 3.6-18.4-5.7z"/><path fill="#c7cda6" d="M720 703.2c1.5-.2 6.3-.6 7.6-.4 17.7 2.4 15.4 35.9 13.3 49-2.2 1.9-4.3 1.4-7.7 1.6-7.6.2-15.5 0-23.2-.3.2-17.2-5.6-39.6 10-50zm7-118.4c14.6.3 12.7 20.6 10.3 30.7l-2 .6H722c.3-11-3.6-23.9 5-31.3z"/><path fill="#8BADAA" d="M732.1 801.5c9.8-.4 45-1.7 52.5 1.2v1.4c-4.8 3.1-28.3 2-35.6 2-18.7 0-40.1.4-58.4-2 14.4-2.1 27.1-2.2 41.5-2.6zm25.2-15c7-.1 27.1-1.5 31.8 2l-1.3 1.6c-5 1.7-62 .2-72.3.2-6.4 0-25.7 2.4-29.5-1.7 4.2-2.5 62.4-2 71.3-2zm2.1 29c5.5-.4 7.4-.9 12.2 1.7l-.4 1.2c-8.9 2.8-33.9 2-44.5 2-5 0-6.8-.3-11.7-1.1l-.5-.8c6.4-2.5 36.3-2.7 44.9-3z"/><path fill="#fff" d="M1366 371a605 605 0 0 1 52.8 381.5c-28.8-12.1-63.5-23.8-93.2-35l-192-71.3-131.9-49c-20-7.4-50.6-20-70.5-25.8-4.9-2.6-16.1-6.4-21.9-8.5l-40.7-15.2c-32.7-12.2-80.1-31.5-112-41-7.6-3.6-18-6.8-26.5-10.6-5.5-1-10.4-2.2-15.8-3.6-1.7-21.2 9.5-17.8 26.7-19.5a252.7 252.7 0 0 0 23.3-3.6c17.5-1.8 41-6.2 58.6-9.1l110.2-18c11.2-2.6 27.5-4.7 39.1-6.6l73.5-12 206.5-33.9c36.8-6 77.5-11.7 113.8-18.8z"/><path fill="var(--c)" d="M875.5 997.8c.3 0 1.7 0 2 .2 69.2 24 159 59.1 165.8 144.4 1.2 15-1 25.7-3.3 38a606.2 606.2 0 0 1-147.8 37c-4 1-19.6 2.2-24.4 2.6-49.1 4.3-90-.2-138-6.5-18.7-94.5 83-163.6 145.7-215.7z"/><path fill="#8BADAA" d="M1017.4 1144.5c4.9-.2 13-1.2 16.9 1.5.4 3 .6 1.5-1.6 4.5-6.2 1.1-15.8.3-22.6.4l-46.7.9-202.5 2.5c-6.8.2-11.2 1.2-16.6-2.7l-.1-1.6c5.5-3.8 78.7-3 91-3.2l182.2-2.3zm-34.4-49c8.2-.3 26.5-1.5 33.8 0 1.5 1.8 1.4 1.7 1.7 4-1.5 1.5-3.9 2-6 2-21 0-42.3.7-63.3 1.2l-145 3.2c-7.4.1-29.9 1.3-35.2.3l-.7-1.5c4.2-7.2 16-4.5 23.5-4.7l44-1 147.2-3.5zm-2-41c2 .7 2.8 1.7 4.4 3.2l-.4 1.7c-6.8 3-154.3 6.2-174.7 7.1-3.2.1-2.2.7-4-.8 2.7-4 4.8-5.2 9.7-5.5 18-1.1 36.4-1.5 54.5-2.1l110.5-3.6zm-76.8-32c12-.7 12.4-.8 24 2l.9 1.6-.3-1.2v1.4c-7 2.5-43.8 2.9-54.1 3.5-4 .1-24.3 1.1-26.3-.6 7.5-7.7 43-6.2 55.8-6.7z"/><path fill="var(--c)" d="M748.7 851a1616.8 1616.8 0 0 1 80.4 26c47.1 16.6 93.3 45 40.9 92.3a1831.2 1831.2 0 0 0-53.2-12.7c14.1-1 48-2.7 60.8-5.4l.3-1.3c-13-4.6-52.8 4.2-70 3-24.6-1.9-46.2-12.5-68-17.4l-1 .7-.9-.2.7-1.9-.5-1c-2 .2-2.6.3-4.6 0H732c-73-30.6-27-57.5 16.7-82.1z"/><path fill="#8BADAA" d="M732 933c5.8-2 139-10.6 147.3-9l1 1.1c-10.8 6.2-117.9 4.9-140.4 10.4l-1 .7-.9-.2.7-1.9-.5-1c-2 .2-2.6.3-4.6 0H732zm118.5-32.6c4.5-.4 9.5-1.2 13 1.5-3.2 3.2-40 3.8-47.4 4.2l-97.2 5.1c-4.5.5-8.8 1.5-12.7-.9l1-1.1c5.4-1.5 35.1-2.6 42.6-3l100.7-5.8zm-48.2-19c5.7-.3 11.9-1.1 17 1.9-3.3 2.5-84 4.8-94.2 5-6.2.5-11.1 1.3-17-.6l1.8-1.4-2.5.7c8.7-2.9 81.1-5 94.9-5.6zm-47.9-18c11.4-.5 16.5.1 27.7 2.4-8.2 1-17.3 1-25.6 1.2-8.2.3-13.2 1-21.3-.6l.3-.9.3.9.7-1.2.3 1.3.7-1.5c4.8-1.3 11.8-1.3 17-1.6z"/></svg>