<svg xmlns="http://www.w3.org/2000/svg" style="--b:transparent;--t:#fbfbfb;--c:#111" viewBox="0 0 1638 2048"><defs><radialGradient id="a" cx="822" cy="654" r="593" fx="722" fy="545" gradientUnits="userSpaceOnUse"><stop offset="0%" stop-color="#CACEA6"/><stop offset="100%" stop-color="#95B9A5"/></radialGradient></defs><path fill="var(--b)" d="M0 0h1638v2048H0V0z"/><path fill="url(#a)" d="M1418.8 752.5A605 605 0 1 1 1366 371a605 605 0 0 1 52.8 381.5z"/><path fill="var(--c)" d="M710.7 427.8c2-8.7-1.2-25.3 4.3-29.5 4.2-.7 2.7-1 6.4.6 4.2 5.3 2.5 20.6 2.4 28.4 20.7 7.2 37.8 18.9 40.5 42.1A252.7 252.7 0 0 1 741 473c-17.2 1.7-28.4-1.7-26.7 19.5 5.4 1.4 10.3 2.5 15.8 3.6 8.5 3.8 19 7 26.6 10.6 3.1 7.5 8.5 6.6 16.3 8 .2 11.3 2.3 16.4-8.4 22.4l-1.3.7-.8.4a3004.1 3004.1 0 0 0 13 119.4c1.8 15.2 4 39.5 6.7 54 .3 10.3 3.4 29.9 4.7 41 163-2 319.8 21.6 470.3 86.8a736 736 0 0 1 95.5 49.1c-47.7 106.3-133.5 195-233.5 253.5-2-33.1-22.6-64.8-47.1-86.1-49-42.7-113.3-62-174.5-78.8 36.7-42.1 33.5-72.9-21.5-98.1-33.8-15.5-76.3-26.9-112.4-37.4 17.4-10 47.2-24.7 52.9-45.1l.8-3.5c-1.5-6.2-2.3-10.2-7.3-14.7-12-10.8-31-14.9-46.3-17.6l.7 3.6c67.7 22.2 16 53-17.3 72.6-28.7-10.9-95.5-30.8-55.8-70.6a283.5 283.5 0 0 0-5.9 2c-13.6 5.2-29.4 17.3-21.6 33.5 10.8 22 44.3 34.4 66 42.6-18.3 10-56.6 29.2-64 48.7-12.8 33.2 39.4 51.3 62.7 59.6 19 6.8 40.4 12.3 60.4 17.8a1546.7 1546.7 0 0 1 57.3 16.6c-62.7 48.8-149 94.9-181.8 172.3-5.2 12.2-7.2 24-9.5 37-15.2-5.2-31.1-10.4-46-16.2a582.6 582.6 0 0 1-322.7-310.8 609.2 609.2 0 0 1 61.3-29.9 1069.6 1069.6 0 0 1 301.3-79.3c1.2-16.3 4.6-34.5 5.1-50.4 2-8.1 4.8-38.7 6.1-48.4 5.4-40.7 8.9-82.1 14.3-122.8-13.4-6.4-11.9-9-10.7-23.4 4.3-1.6 9.9-3.1 14.4-4.5 0-5.7.6-36.9-.6-40-2-.5-2.4-.6-4.3-1.6-1.5-21.7 20.4-34.4 37.5-41.3z"/><path fill="#8BADAA" d="M746.1 758.6a630.5 630.5 0 0 1 17.7 2.1l.7 3.6-18.4-5.7z"/><path fill="#c7cda6" d="M720 703.2c1.5-.2 6.3-.6 7.6-.4 17.7 2.4 15.4 35.9 13.3 49-2.2 1.9-4.3 1.4-7.7 1.6-7.6.2-15.5 0-23.2-.3.2-17.2-5.6-39.6 10-50zm7-118.4c14.6.3 12.7 20.6 10.3 30.7l-2 .6H722c.3-11-3.6-23.9 5-31.3z"/><path fill="#8BADAA" d="M732.1 801.5c9.8-.4 45-1.7 52.5 1.2v1.4c-4.8 3.1-28.3 2-35.6 2-18.7 0-40.1.4-58.4-2 14.4-2.1 27.1-2.2 41.5-2.6zm25.2-15c7-.1 27.1-1.5 31.8 2l-1.3 1.6c-5 1.7-62 .2-72.3.2-6.4 0-25.7 2.4-29.5-1.7 4.2-2.5 62.4-2 71.3-2zm2.1 29c5.5-.4 7.4-.9 12.2 1.7l-.4 1.2c-8.9 2.8-33.9 2-44.5 2-5 0-6.8-.3-11.7-1.1l-.5-.8c6.4-2.5 36.3-2.7 44.9-3z"/><path fill="#fff" d="M1366 371a605 605 0 0 1 52.8 381.5c-28.8-12.1-63.5-23.8-93.2-35l-192-71.3-131.9-49c-20-7.4-50.6-20-70.5-25.8-4.9-2.6-16.1-6.4-21.9-8.5l-40.7-15.2c-32.7-12.2-80.1-31.5-112-41-7.6-3.6-18-6.8-26.5-10.6-5.5-1-10.4-2.2-15.8-3.6-1.7-21.2 9.5-17.8 26.7-19.5a252.7 252.7 0 0 0 23.3-3.6c17.5-1.8 41-6.2 58.6-9.1l110.2-18c11.2-2.6 27.5-4.7 39.1-6.6l73.5-12 206.5-33.9c36.8-6 77.5-11.7 113.8-18.8z"/><path fill="var(--c)" d="M875.5 997.8c.3 0 1.7 0 2 .2 69.2 24 159 59.1 165.8 144.4 1.2 15-1 25.7-3.3 38a606.2 606.2 0 0 1-147.8 37c-4 1-19.6 2.2-24.4 2.6-49.1 4.3-90-.2-138-6.5-18.7-94.5 83-163.6 145.7-215.7z"/><path fill="#8BADAA" d="M1017.4 1144.5c4.9-.2 13-1.2 16.9 1.5.4 3 .6 1.5-1.6 4.5-6.2 1.1-15.8.3-22.6.4l-46.7.9-202.5 2.5c-6.8.2-11.2 1.2-16.6-2.7l-.1-1.6c5.5-3.8 78.7-3 91-3.2l182.2-2.3zm-34.4-49c8.2-.3 26.5-1.5 33.8 0 1.5 1.8 1.4 1.7 1.7 4-1.5 1.5-3.9 2-6 2-21 0-42.3.7-63.3 1.2l-145 3.2c-7.4.1-29.9 1.3-35.2.3l-.7-1.5c4.2-7.2 16-4.5 23.5-4.7l44-1 147.2-3.5zm-2-41c2 .7 2.8 1.7 4.4 3.2l-.4 1.7c-6.8 3-154.3 6.2-174.7 7.1-3.2.1-2.2.7-4-.8 2.7-4 4.8-5.2 9.7-5.5 18-1.1 36.4-1.5 54.5-2.1l110.5-3.6zm-76.8-32c12-.7 12.4-.8 24 2l.9 1.6-.3-1.2v1.4c-7 2.5-43.8 2.9-54.1 3.5-4 .1-24.3 1.1-26.3-.6 7.5-7.7 43-6.2 55.8-6.7z"/><path fill="var(--c)" d="M748.7 851a1616.8 1616.8 0 0 1 80.4 26c47.1 16.6 93.3 45 40.9 92.3a1831.2 1831.2 0 0 0-53.2-12.7c14.1-1 48-2.7 60.8-5.4l.3-1.3c-13-4.6-52.8 4.2-70 3-24.6-1.9-46.2-12.5-68-17.4l-1 .7-.9-.2.7-1.9-.5-1c-2 .2-2.6.3-4.6 0H732c-73-30.6-27-57.5 16.7-82.1z"/><path fill="#8BADAA" d="M732 933c5.8-2 139-10.6 147.3-9l1 1.1c-10.8 6.2-117.9 4.9-140.4 10.4l-1 .7-.9-.2.7-1.9-.5-1c-2 .2-2.6.3-4.6 0H732zm118.5-32.6c4.5-.4 9.5-1.2 13 1.5-3.2 3.2-40 3.8-47.4 4.2l-97.2 5.1c-4.5.5-8.8 1.5-12.7-.9l1-1.1c5.4-1.5 35.1-2.6 42.6-3l100.7-5.8zm-48.2-19c5.7-.3 11.9-1.1 17 1.9-3.3 2.5-84 4.8-94.2 5-6.2.5-11.1 1.3-17-.6l1.8-1.4-2.5.7c8.7-2.9 81.1-5 94.9-5.6zm-47.9-18c11.4-.5 16.5.1 27.7 2.4-8.2 1-17.3 1-25.6 1.2-8.2.3-13.2 1-21.3-.6l.3-.9.3.9.7-1.2.3 1.3.7-1.5c4.8-1.3 11.8-1.3 17-1.6z"/><path fill="var(--t)" d="M382.5 1452.5h28.6v367.3H373c-8.1-11.5-19.5-25.2-28.3-36.4l-52.5-66.8c-49.4-63.6-99.2-127-149.2-190v293.2H99.1v-367.2h41c25.6 34.7 55.2 71.3 82 105.6l145.7 186.7c-1.3-96.3-.1-195.7-.1-292.3l14.7-.1z"/><path fill="var(--t)" fill-rule="evenodd" d="M642.5 1535.4c29.7-.8 62.5 4.5 85 25 32.7 30 31.7 72 31.4 112.4-.4 49-.6 98 2.3 147h-40.3c-1.3-11.7-2-26.3-2.7-38.3-3.2 3.3-6.5 6.4-9.6 9.7-40.6 42.2-122.4 47.3-163.7 3.6a91.3 91.3 0 0 1-14-21.5c-10.8-28.1-7.3-64.4 15.5-85.5 42.4-39.2 117.6-31 171.3-30.9-1.2-37.6-6.5-73.7-51.2-81.4-40.6-7-75 6-108.3 28.8-5-10.8-10.4-22-15.5-32.7a174.5 174.5 0 0 1 99.8-36.2zm-4.9 152c24.2-1.4 55.2-.4 79.8-.3.2 23 3 48.4-10.5 67.5-14.8 21.2-35.6 29.3-59.9 34l-1.3.1c-21 2.5-43.1.5-60.4-13a45.4 45.4 0 0 1-7.6-64.8c14.8-17.3 38.2-21.7 59.9-23.5z"/><path fill="var(--t)" d="M1440 1535.4c37.8-4.7 79.4 9.5 109.7 32l-19.3 31.1c-30.2-22-90-42.1-122.4-14.8a34.1 34.1 0 0 0-12 24.5c-2.3 41 65.3 47.4 95 58.3 39.7 14.6 68.7 35.2 65 81.6-5 59-60.3 80.8-112.8 76.2a171 171 0 0 1-101.9-44.1c7.3-9.6 14.4-19.9 21.4-29.7 35 27.5 76.5 47.5 122 33.2 35.2-11.1 41.7-56.5 6.5-73.4-46.6-22.4-127.8-22.2-136-86.5-5.9-54.8 34.7-83.3 84.7-88.4zm-375.5 4.1 45.9.2c-5.3 11.6-10.2 23.8-15.1 35.6L991 1820.9l-38.7-.1-118.5-281.1 46.3.1 65.3 162.7c8.8 21.8 18 46.4 27.3 67.5 9.3-26.9 22.8-58.4 33.5-85l58.2-145.5zm134 .2h43.5l-.2 280-43.1.1-.2-280z"/><path fill="var(--t)" fill-rule="evenodd" d="M139.2 1918.8a40.9 40.9 0 1 1 17.7 79.9 40.9 40.9 0 0 1-17.7-79.9zm3.2 7.4c42.7-2 48.5 53.7 11.3 64.8-6.5.3-10.4.5-16.7-2a30.6 30.6 0 0 1-17.1-17.9c-7.4-20.1 2.5-38 22.5-44.9z"/><path fill="var(--t)" d="M1215.3 1428.4a31 31 0 0 1 13.2 60.5 31 31 0 0 1-29.8-9.3 31 31 0 0 1 16.6-51.2z"/><path fill="var(--t)" fill-rule="evenodd" d="M1193.3 1938.6a30.8 30.8 0 1 1 8.8 61 30.8 30.8 0 0 1-8.8-61zm-2.3 8.6c10.6-1 19.2 0 24.9 10.7 3.1 6 3.6 13 1.4 19.4-2.7 7.4-7 10.7-13.7 13.8-9.4 1.4-18-.6-23.3-9.4a24.4 24.4 0 0 1-2.4-19.5c2.4-8 6.3-11.2 13-15zm-701.7-8.6a30.8 30.8 0 0 1 9.2 60.9 30.8 30.8 0 0 1-29-11 30.8 30.8 0 0 1-4.7-30.8 30.8 30.8 0 0 1 24.5-19.1zm2.2 7.5a23 23 0 0 1 3.9 45.8 22 22 0 0 1-22-16.7 24.6 24.6 0 0 1 3.2-19.6c4-6 8.3-8 14.9-9.5zm297.7-7.7c24.6.7 27.7 13.8 27.3 35.8-.1 8 .4 16.1-1.3 24-3.5.3-6 1.2-8.2-.5l-.3-4.7c-5.8-1.3-21.3 18.4-40.2-2.4-11.7-33.2 20.1-27.1 38.4-27.3l1.1-1.2c0-27.5-29.2-8.4-35.6-13.2-.3-3.6-.4-2.2 1.2-5.7 4.1-3.8 12.1-4.2 17.6-4.8zm-4.2 30.8c24.4-1.4 32.1 10.8 10.3 22.6-21.2 4.1-31-16.1-10.3-22.6zm203.5-31c24.3-.4 30 12.4 31.5 33.8h-46.8c5.4 18.4 17 25.4 34.6 15.7l3-3c3.5 0 4.2 1.7 7.5 4.4-44.3 40-80-37.8-29.8-50.9zm.7 8c9.4-.3 17.6 4.6 22 13 0 3.8.5 2.3-2 5.6-3 1-11.5.5-15 .5H973c3.3-10.3 5.2-15.6 16-19.1zm459.2-8c24.6-.9 31 12.2 32.5 33.8-10.9.2-32.4-.7-44 .4l-2 1.9c-.4 1.8-1 2.7-.2 4.3 7.3 13.1 19.7 15.3 31.8 10.6l4.8-3.5c3.7-.3 2.1-.8 5 1l.3 2.4c-5 11.6-25.8 13.6-35.1 8-25.6-15.4-20.9-49.8 6.9-58.8zm.6 8c8.9-.6 19.3 4 22.1 13-1.4 8.3-8.6 6.5-15.4 6.2-5.1.1-17.8 1.2-21.3-1.7-1.5-7 8.8-14.9 14.6-17.6z"/><path fill="var(--t)" d="M262 1985.3c3.2-10.5 11-40 17.6-45.9 3-.6 2.9-.7 6 .1.5 3.6-1.8 8.6-3.1 12.3-3 8.6-13.8 44.6-20.2 47.9l-2.3-1c-5.9-6.7-14-35.4-17.9-45.8-2.6 8.6-12.1 41.7-17.3 46.4-10 1.1-23.6-50.5-26.6-60.2 3.8-.1 4.7-.2 8.4.6 3.4 2.7 13.6 38 16.2 45.4 4.3-12.3 8-25 12.6-37.1 1.6-4.2 3.8-10.2 8.9-8.3 5.7 6.1 13.8 35 17.6 45.6zm452.6-67a46 46 0 0 1 40 11.5l-7.2 7.4a63.3 63.3 0 0 0-1.5-1.3c-37.4-33.6-72.7 22.2-41 49.7 7 6.1 17.4 6.1 26.2 4.8 8.1-2.8 10.7-5.3 17-11l6.9 6c-13.6 14-32.6 19.8-50.6 10.5a40.6 40.6 0 0 1-20.1-24.3c-7.6-25 5.6-46.5 30.3-53.4zm803.3 69.3c6.7-14.5 11.7-32 18.9-46.3.9-1.9 4.4-1.7 6.7-2l1.1 1c.9 6.9-10.3 30.4-13.6 38.3-6.9 16-14 51-39.8 37.1-1.4-.7-1-1.6-1-3 7.5-10.5 12.6 7.3 23.5-13.7-7.8-19.9-18.4-38.7-26-59.7 4-.2 5-.3 8.9.5 4 4.5 18.1 40.2 21.3 47.8zm-657.4-49.4c26.6-1 26.4 20 25.7 39.7-.3 6.5.4 13.8-.6 20.2l-1.8 1c-3.9 0-2.6.5-5.8-1.4-8.8-14.4 13.1-56.3-24.2-50-21.4 13.2-2.4 43.3-12.4 51-3.8.1-2.9.6-5.8-1-3.9-7.4-.1-32.2-1.4-42-.3-2.5 0-12.4.4-14.9 2.7-1.6 3.5-1.4 6.8-1.4 3.6 2.3-.2 2.2 2.9 6.8 6.2-4 8.9-6.4 16.2-8zm-535.2 0c20-.7 26.2 11.6 26.2 30 0 9.7.3 19.6-1.5 29.2-2.3 2-3.8 2.5-6.4 1-8.4-14.6 12-57-24.9-50.8-20.8 12.9-2.4 41.2-12.3 51-2.5.3-6.4.8-6.7-2.5-.6-8.8-2-50.7.6-56.3 3.4-1.6 2-1.2 6.2-.7 2.4 2 1.3 2.7 2.1 7.2 7-3.8 8.9-6.2 16.7-8zm958.5 42.7c1-9.5-1.4-36.5 4-41.5 3.5-.5 2.4-.8 5.3.4 1.5 4.7 1 13.1.9 18.5 0 7.3.7 34-.6 39.8-3.6 1-3.9.8-7.7.3-.5-2.6-.8-4.3-1.5-6.8-6.5 4-12.3 8.7-20.3 8.6-19.5-.2-22.1-20.8-21.7-35.8.2-8.6.1-17 .2-25.3 3.9-.2 4.7-.4 8.3.7 7 11.6-11.3 55.4 20.8 51.3 6.2-.8 9.1-5.5 12.3-10.2zm101.6-42.7c13.3.2 22.7 5.3 24.4 19.5.6 5.3 1.1 38.1-.9 40.8-3.8.8-2.5 1-5.8-.2-9.4-11.6 11.9-59.6-26.2-50-17.6 13.7-3.8 33.5-9.8 49.8-2.7 1.2-4.2.7-7.1.5-1.7-3.1-2.1-53-1-58 1.9-1.7 3.6-1.4 6.3-1.6 4.4 1.8.5 2 3.2 7.5 6.8-4.5 9-6.8 17-8.3zm-847.2 1c3.2 0 6.5-.6 9.1 1 1.7 6.9-.1 18.5.3 26.5.4 8.7 1.8 26.4 14.3 25.8 31.2-1.6 13-44.3 20.7-53 4.5 0 3.5-.7 6.7 1.3 1.7 3.7.9 9.6.7 14-.1 7 1.4 39.3-1.1 43.2-2.9.4-5.1 1.2-7.6 0l-.5-5.8c-4.6 0-12.7 9.1-21.6 8.2-27.7-2.8-21.3-41-21-61.1zm-146-20.3c2.3 0 10.1-.5 11.3.9 9 11.5 18.1 26.4 26.3 38.4 6.8-10.5 18.3-29.3 26-38.3 3.2-1.3 5.4-.9 8.9-.7.2 4.3-11.5 20-14.5 24.3a487.1 487.1 0 0 0-16 24.3c0 9.1 3.2 25.2-3.6 30.9-3.4.4-2.5.8-4.9-.7-1.6-7.8-.8-22.4-.7-31l-32.7-48zm534.2 19.4c13.2-1 18.8 2.2 28.7 10-2.7 2.8-3.4 3.9-6.8 5.6-47-33.4-50.2 56-5.8 34.5 2.5-2.4 3.1-3.4 6.3-4.4 3.7.6 2.5-.3 4.3 2.4-.6 17.1-43.4 22.1-51.2-9.4a33 33 0 0 1 3.9-25c5.1-8.4 11.7-11.5 20.6-13.7zm215.8-19.5c4 0 5-.2 8.8.7 2 4.2 1.5 49.3.7 56.4-2.8 24.3-22.7 29.9-42.3 18-2.7-2.6-5-4.4-6.3-8 7.3-11.3 13.3 5.5 22.8 5.5 16.3-.1 16.7-16 16.5-28.3a2715 2715 0 0 1-.2-44.3zm201.1 19.3 2.1 1.3c2.2 11.5-6.2 8.7-14.5 13-15.8 8.3-1.5 39.9-12.6 46.5-3.5-.1-2.6.4-5-1.5l-.2-4.2c0-9.4-1.7-49.4 1.7-53.6 2.5-.3 4-.8 6.2.3 1.8 3 1.3 7.6 1.3 11.4 7.3-8.5 10.2-10.8 21-13.2zm-703.3.1c.9.5 1.4 1.3 2.1 2.2 1.3 10-15.2 8.7-20.6 18-5.7 10 0 31.6-5.2 39.5-3.3 1.6-1.9 1.2-5.7 1-2-2.2-1.3-1.8-1.5-5.6.2-8-1.6-49.6 1.6-53 2.5-.4 4.1-1 6.4.1 1.6 3.1 1 7.4 1 11 7.7-8.7 10.5-11 21.9-13.2zm425.1 0c1.3.1 1.1.3 2.4 1.2 2.6 13-7.1 7-16.4 14-13.2 9.8-1 38.2-10.8 45.3-3.3 0-2.5.5-4.8-1.1l-.4-4.3c.1-10.3-1-45 .7-52.6 2.4-2 2.6-1.3 6.6-1.4 2.1 2.1 1.5 8.5 1.7 12.3 7.2-8.7 10-11.1 21-13.5z"/></svg>